<?xml version="1.0" encoding="UTF-8"?>
<svg xmlns="http://www.w3.org/2000/svg" version="1.1" width="150" height="150" viewBox="0 0 150 150"><rect x="0" y="0" width="150" height="150" fill="#ffffff"/><g transform="scale(5.172)"><g transform="translate(0,0)"><path fill-rule="evenodd" d="M11 0L11 1L9 1L9 2L11 2L11 1L14 1L14 0ZM17 0L17 1L16 1L16 2L15 2L15 3L17 3L17 4L16 4L16 7L15 7L15 5L14 5L14 8L12 8L12 7L13 7L13 5L11 5L11 6L10 6L10 8L9 8L9 9L8 9L8 8L5 8L5 9L2 9L2 8L0 8L0 9L1 9L1 10L3 10L3 11L2 11L2 12L1 12L1 11L0 11L0 12L1 12L1 13L0 13L0 14L1 14L1 15L0 15L0 16L1 16L1 17L0 17L0 21L1 21L1 19L3 19L3 18L2 18L2 16L3 16L3 17L5 17L5 18L4 18L4 19L5 19L5 18L6 18L6 19L7 19L7 18L8 18L8 20L6 20L6 21L8 21L8 24L9 24L9 27L8 27L8 29L14 29L14 28L16 28L16 26L17 26L17 27L18 27L18 28L17 28L17 29L20 29L20 28L19 28L19 27L21 27L21 26L22 26L22 27L23 27L23 28L24 28L24 29L25 29L25 28L26 28L26 29L27 29L27 27L28 27L28 28L29 28L29 27L28 27L28 26L29 26L29 24L27 24L27 25L26 25L26 24L25 24L25 23L27 23L27 22L26 22L26 21L29 21L29 20L26 20L26 21L25 21L25 20L24 20L24 19L22 19L22 20L21 20L21 18L20 18L20 15L18 15L18 14L16 14L16 13L17 13L17 10L18 10L18 11L19 11L19 12L20 12L20 13L19 13L19 14L21 14L21 16L25 16L25 17L22 17L22 18L25 18L25 19L26 19L26 18L28 18L28 19L29 19L29 17L27 17L27 14L29 14L29 12L28 12L28 13L27 13L27 14L25 14L25 13L24 13L24 12L26 12L26 11L25 11L25 9L26 9L26 10L28 10L28 9L26 9L26 8L24 8L24 9L23 9L23 11L22 11L22 10L20 10L20 9L21 9L21 8L20 8L20 7L21 7L21 6L20 6L20 7L19 7L19 6L18 6L18 8L16 8L16 7L17 7L17 4L18 4L18 3L17 3L17 1L18 1L18 2L19 2L19 0ZM20 1L20 4L19 4L19 5L21 5L21 1ZM12 2L12 4L14 4L14 3L13 3L13 2ZM8 3L8 5L10 5L10 4L9 4L9 3ZM8 6L8 7L9 7L9 6ZM11 6L11 7L12 7L12 6ZM10 8L10 10L7 10L7 9L6 9L6 10L7 10L7 11L6 11L6 12L7 12L7 13L5 13L5 10L4 10L4 12L2 12L2 13L1 13L1 14L2 14L2 15L4 15L4 14L2 14L2 13L5 13L5 14L7 14L7 15L5 15L5 16L7 16L7 15L8 15L8 16L9 16L9 17L10 17L10 16L11 16L11 15L12 15L12 16L14 16L14 18L13 18L13 17L12 17L12 19L11 19L11 18L10 18L10 19L9 19L9 20L8 20L8 21L9 21L9 24L10 24L10 23L11 23L11 25L10 25L10 26L11 26L11 28L14 28L14 27L15 27L15 26L14 26L14 25L15 25L15 24L14 24L14 23L15 23L15 21L16 21L16 22L17 22L17 23L16 23L16 24L17 24L17 26L18 26L18 27L19 27L19 22L20 22L20 21L19 21L19 20L18 20L18 19L19 19L19 18L18 18L18 17L19 17L19 16L18 16L18 15L15 15L15 16L14 16L14 15L12 15L12 14L14 14L14 13L16 13L16 12L15 12L15 9L13 9L13 10L12 10L12 9L11 9L11 8ZM18 8L18 9L20 9L20 8ZM16 9L16 10L17 10L17 9ZM10 10L10 11L9 11L9 14L8 14L8 15L9 15L9 14L10 14L10 11L11 11L11 10ZM13 10L13 11L14 11L14 10ZM19 10L19 11L20 11L20 12L21 12L21 14L22 14L22 15L24 15L24 14L22 14L22 12L21 12L21 11L20 11L20 10ZM7 11L7 12L8 12L8 11ZM11 12L11 14L12 14L12 12ZM25 15L25 16L26 16L26 15ZM28 15L28 16L29 16L29 15ZM17 16L17 17L15 17L15 19L14 19L14 20L12 20L12 21L11 21L11 22L12 22L12 21L15 21L15 20L17 20L17 21L18 21L18 22L19 22L19 21L18 21L18 20L17 20L17 19L18 19L18 18L17 18L17 17L18 17L18 16ZM6 17L6 18L7 18L7 17ZM25 17L25 18L26 18L26 17ZM16 18L16 19L17 19L17 18ZM10 19L10 20L9 20L9 21L10 21L10 20L11 20L11 19ZM3 20L3 21L5 21L5 20ZM21 21L21 24L24 24L24 21ZM22 22L22 23L23 23L23 22ZM12 24L12 25L11 25L11 26L12 26L12 25L13 25L13 24ZM22 25L22 26L25 26L25 25ZM13 26L13 27L14 27L14 26ZM9 27L9 28L10 28L10 27ZM24 27L24 28L25 28L25 27ZM0 0L0 7L7 7L7 0ZM1 1L1 6L6 6L6 1ZM2 2L2 5L5 5L5 2ZM22 0L22 7L29 7L29 0ZM23 1L23 6L28 6L28 1ZM24 2L24 5L27 5L27 2ZM0 22L0 29L7 29L7 22ZM1 23L1 28L6 28L6 23ZM2 24L2 27L5 27L5 24Z" fill="#3851ff"/></g></g></svg>
